<?xml version="1.0" encoding="UTF-8"?>
<svg xmlns="http://www.w3.org/2000/svg" viewBox="0 0 160 120" role="img" aria-label="Caballito de mar" fill="none" stroke="url(#animalStroke)" stroke-width="3.8" stroke-linecap="round" stroke-linejoin="round">
  <title>Caballito de mar</title>
  <defs>
    <linearGradient id="animalStroke" x1="0" y1="0" x2="1" y2="1">
      <stop offset="0%" stop-color="#d8f6ff" stop-opacity="0.95"/>
      <stop offset="48%" stop-color="#7fb8d4" stop-opacity="0.9"/>
      <stop offset="100%" stop-color="#c9a961" stop-opacity="0.72"/>
    </linearGradient>
    <filter id="aquaGlow" x="-30%" y="-30%" width="160%" height="160%">
      <feGaussianBlur in="SourceGraphic" stdDeviation="1.2" result="soft"/>
      <feColorMatrix in="soft" type="matrix" values="0 0 0 0 0.45  0 0 0 0 0.75  0 0 0 0 0.9  0 0 0 0.65 0" result="glow"/>
      <feMerge>
        <feMergeNode in="glow"/>
        <feMergeNode in="SourceGraphic"/>
      </feMerge>
    </filter>
    <style><![CDATA[
      svg { overflow: visible; }
      g { filter: url(#aquaGlow); }
      path, ellipse, rect, line, circle { vector-effect: non-scaling-stroke; }
      path, ellipse, rect, line { stroke: url(#animalStroke); }
      circle:not([fill="none"]) { stroke: none; }
      path[opacity], ellipse[opacity], line[opacity] { opacity: 0.62; }
    ]]></style>
  </defs>
  <g opacity="0.98">
    <path d="M91 18 Q111 26 104 48 Q95 58 78 55 Q61 56 54 71 Q48 86 61 98 Q76 110 89 99 Q98 88 86 80 Q76 79 77 88"/>
    <path d="M91 18 L77 13 L67 23 L80 28"/>
    <path d="M70 56 Q85 71 75 92" opacity="0.55"/>
    <path d="M100 41 Q119 42 124 57 Q112 65 99 58"/>
    <circle cx="88" cy="30" r="2" fill="#f5f1ea" stroke="none"/>
  </g>
</svg>
