<?xml version="1.0" encoding="UTF-8"?>
<svg xmlns="http://www.w3.org/2000/svg" viewBox="0 0 160 120" role="img" aria-label="Erizos de fuego" fill="none" stroke="url(#animalStroke)" stroke-width="3.8" stroke-linecap="round" stroke-linejoin="round">
  <title>Erizos de fuego</title>
  <defs>
    <linearGradient id="animalStroke" x1="0" y1="0" x2="1" y2="1">
      <stop offset="0%" stop-color="#d8f6ff" stop-opacity="0.95"/>
      <stop offset="48%" stop-color="#7fb8d4" stop-opacity="0.9"/>
      <stop offset="100%" stop-color="#c9a961" stop-opacity="0.72"/>
    </linearGradient>
    <filter id="aquaGlow" x="-30%" y="-30%" width="160%" height="160%">
      <feGaussianBlur in="SourceGraphic" stdDeviation="1.2" result="soft"/>
      <feColorMatrix in="soft" type="matrix" values="0 0 0 0 0.45  0 0 0 0 0.75  0 0 0 0 0.9  0 0 0 0.65 0" result="glow"/>
      <feMerge>
        <feMergeNode in="glow"/>
        <feMergeNode in="SourceGraphic"/>
      </feMerge>
    </filter>
    <style><![CDATA[
      svg { overflow: visible; }
      g { filter: url(#aquaGlow); }
      path, ellipse, rect, line, circle { vector-effect: non-scaling-stroke; }
      path, ellipse, rect, line { stroke: url(#animalStroke); }
      circle:not([fill="none"]) { stroke: none; }
      path[opacity], ellipse[opacity], line[opacity] { opacity: 0.62; }
    ]]></style>
  </defs>
  <g opacity="0.98">
    <circle cx="80" cy="66" r="22"/>
    <path d="M104.0 66.0 L132.0 66.0" opacity="0.65"/>
    <path d="M102.6 74.2 L128.9 83.8" opacity="0.65"/>
    <path d="M98.4 81.4 L119.8 99.4" opacity="0.65"/>
    <path d="M92.0 86.8 L106.0 111.0" opacity="0.65"/>
    <path d="M84.2 89.6 L89.0 117.2" opacity="0.65"/>
    <path d="M75.8 89.6 L71.0 117.2" opacity="0.65"/>
    <path d="M68.0 86.8 L54.0 111.0" opacity="0.65"/>
    <path d="M61.6 81.4 L40.2 99.4" opacity="0.65"/>
    <path d="M57.4 74.2 L31.1 83.8" opacity="0.65"/>
    <path d="M56.0 66.0 L28.0 66.0" opacity="0.65"/>
    <path d="M57.4 57.8 L31.1 48.2" opacity="0.65"/>
    <path d="M61.6 50.6 L40.2 32.6" opacity="0.65"/>
    <path d="M68.0 45.2 L54.0 21.0" opacity="0.65"/>
    <path d="M75.8 42.4 L71.0 14.8" opacity="0.65"/>
    <path d="M84.2 42.4 L89.0 14.8" opacity="0.65"/>
    <path d="M92.0 45.2 L106.0 21.0" opacity="0.65"/>
    <path d="M98.4 50.6 L119.8 32.6" opacity="0.65"/>
    <path d="M102.6 57.8 L128.9 48.2" opacity="0.65"/>
  </g>
</svg>
