<?xml version="1.0" encoding="UTF-8"?>
<svg xmlns="http://www.w3.org/2000/svg" viewBox="0 0 160 120" role="img" aria-label="Pez payaso y anémona" fill="none" stroke="url(#animalStroke)" stroke-width="3.8" stroke-linecap="round" stroke-linejoin="round">
  <title>Pez payaso y anémona</title>
  <defs>
    <linearGradient id="animalStroke" x1="0" y1="0" x2="1" y2="1">
      <stop offset="0%" stop-color="#d8f6ff" stop-opacity="0.95"/>
      <stop offset="48%" stop-color="#7fb8d4" stop-opacity="0.9"/>
      <stop offset="100%" stop-color="#c9a961" stop-opacity="0.72"/>
    </linearGradient>
    <filter id="aquaGlow" x="-30%" y="-30%" width="160%" height="160%">
      <feGaussianBlur in="SourceGraphic" stdDeviation="1.2" result="soft"/>
      <feColorMatrix in="soft" type="matrix" values="0 0 0 0 0.45  0 0 0 0 0.75  0 0 0 0 0.9  0 0 0 0.65 0" result="glow"/>
      <feMerge>
        <feMergeNode in="glow"/>
        <feMergeNode in="SourceGraphic"/>
      </feMerge>
    </filter>
    <style><![CDATA[
      svg { overflow: visible; }
      g { filter: url(#aquaGlow); }
      path, ellipse, rect, line, circle { vector-effect: non-scaling-stroke; }
      path, ellipse, rect, line { stroke: url(#animalStroke); }
      circle:not([fill="none"]) { stroke: none; }
      path[opacity], ellipse[opacity], line[opacity] { opacity: 0.62; }
    ]]></style>
  </defs>
  <g opacity="0.98">
    <path d="M80 106 V58"/>
    <path d="M80 60 Q66.66320878171965 65.4 41.9 39.0" opacity="0.45"/>
    <path d="M80 60 Q68.20291557596774 64.3148141663823 46.3 33.6" opacity="0.6"/>
    <path d="M80 60 Q70.1010708108273 63.37806223229577 51.7 28.9" opacity="0.75"/>
    <path d="M80 60 Q72.3 62.61820693123826 58.0 25.1" opacity="0.45"/>
    <path d="M80 60 Q74.7328897927847 62.0583360820271 65.0 22.3" opacity="0.6"/>
    <path d="M80 60 Q77.32581806392928 61.71546107710722 72.4 20.6" opacity="0.75"/>
    <path d="M80 60 Q80 61.6 80.0 20.0" opacity="0.45"/>
    <path d="M80 60 Q82.67418193607072 61.71546107710722 87.6 20.6" opacity="0.6"/>
    <path d="M80 60 Q85.2671102072153 62.0583360820271 95.0 22.3" opacity="0.75"/>
    <path d="M80 60 Q87.7 62.61820693123826 102.0 25.1" opacity="0.45"/>
    <path d="M80 60 Q89.8989291891727 63.37806223229577 108.3 28.9" opacity="0.6"/>
    <path d="M80 60 Q91.79708442403226 64.3148141663823 113.7 33.6" opacity="0.75"/>
    <path d="M80 60 Q93.33679121828035 65.4 118.1 39.0" opacity="0.45"/>
    <path d="M48 108 Q80 98 113 108" opacity="0.45"/>
    <g transform="translate(18 18) scale(.72)">    <path d="M22 62 Q48 34 91 48 Q120 56 139 43 L135 64 L141 84 Q116 70 91 74 Q50 86 22 62 Z"/>
    <path d="M44 67 Q34 80 24 91" opacity="0.45"/>
    <path d="M54 49 Q44 34 30 28" opacity="0.45"/>
    <circle cx="112" cy="56" r="2.2" fill="#c9a961" stroke="none"/>
    <path d="M70 50 Q76 62 69 76 M84 49 Q90 62 83 75" opacity="0.35"/></g>
  </g>
</svg>
